<svg width="58" height="59" viewBox="0 0 58 59" fill="none" xmlns="http://www.w3.org/2000/svg">
<mask id="path-1-inside-1_1_604" fill="white">
<path d="M26.5557 0.209978C26.8833 -0.0780946 27.3459 0.00202752 27.7409 0.0387246C28.9069 0.18796 30.059 0.479702 31.1424 0.945143C32.118 1.38123 33.0129 1.99346 33.7868 2.73719C34.5131 3.42709 35.178 4.20324 35.6213 5.11455C36.1476 4.49865 36.5897 3.81669 37.0016 3.11761C37.1431 2.89988 37.3003 2.68336 37.5099 2.52862C37.8598 2.31517 38.3344 2.20936 38.6987 2.44911C38.9444 2.58979 39.0378 2.87969 39.2431 3.06379C39.7888 3.59345 40.3585 4.09804 40.9547 4.56776C41.354 4.91271 41.7461 5.26745 42.1195 5.64176C42.6597 6.15797 43.1119 6.75858 43.5745 7.34451C43.9352 7.8864 44.3068 8.42707 44.5441 9.0393C45.2017 8.49619 45.8823 7.97937 46.4977 7.38549C46.7073 7.16347 47.0199 7.10965 47.3102 7.11515C47.5475 7.09864 47.7835 7.19344 47.957 7.35613C48.3936 7.76041 48.6959 8.28212 49.0398 8.76408C49.5349 9.57753 50.0179 10.4112 50.2973 11.3304C50.5508 12.0161 50.6556 12.7433 50.746 13.4662C50.8363 14.6797 50.8068 15.931 50.4159 17.0925C50.7682 17.0478 51.1212 17.0093 51.4729 16.9634C52.1733 16.8619 52.849 16.5402 53.5675 16.6069C53.9378 16.7096 54.3203 16.9451 54.4395 17.339C54.5431 17.6319 54.4082 17.931 54.4118 18.2277C54.4046 19.1322 54.5389 20.0283 54.6009 20.9286C54.6979 22.2931 54.6449 23.6741 54.3672 25.0154C54.2703 25.4454 54.1763 25.8784 53.992 26.2808C54.8563 26.3591 55.7169 26.4821 56.5853 26.5071C56.8629 26.5041 57.0966 26.6839 57.2851 26.8735C57.4471 27.0276 57.5621 27.2399 57.5754 27.468C57.5971 27.9616 57.529 28.4545 57.4296 28.9365C57.3357 29.5848 57.1406 30.2111 56.9641 30.8392C56.7732 31.3952 56.5239 31.9285 56.2523 32.4478C55.8993 33.12 55.4176 33.7102 54.9315 34.2851C54.2329 35.0276 53.4633 35.7291 52.5437 36.175C53.1495 36.7144 53.8246 37.164 54.5196 37.5756C54.7948 37.7762 55.102 37.9952 55.2092 38.3401C55.3362 38.6472 55.3561 39.0221 55.1682 39.3095C55.0285 39.5517 54.7551 39.6551 54.5702 39.8539C54.1613 40.2808 53.7801 40.734 53.4139 41.1994C52.5226 42.3426 51.5072 43.3915 50.3497 44.2581C49.8197 44.6245 49.2873 44.9958 48.6899 45.2435C49.1205 45.7927 49.5433 46.3487 50.0022 46.874C50.2021 47.1168 50.4774 47.3285 50.5424 47.6557C50.5876 47.959 50.6231 48.3022 50.443 48.5707C50.1648 48.9829 49.7288 49.2398 49.3421 49.534C48.8628 49.9009 48.3334 50.1908 47.81 50.4881C46.5273 51.1786 45.0819 51.5468 43.6311 51.5768C42.6657 51.6061 41.6804 51.5266 40.762 51.2043C40.8126 51.6544 40.8379 52.1089 40.936 52.5523C41.0396 53.1584 41.2866 53.7486 41.2348 54.3743C41.1366 54.8661 40.7391 55.3731 40.1983 55.3291C39.2793 55.1664 38.35 55.3523 37.431 55.4177C36.3945 55.5095 35.3478 55.5388 34.312 55.4294C33.4303 55.3339 32.5396 55.1896 31.7181 54.8385C31.6188 55.7242 31.5116 56.6104 31.4808 57.5015C31.4724 57.7737 31.2978 57.9994 31.1177 58.1847C30.9605 58.3529 30.7425 58.4709 30.5106 58.4764C30.0415 58.493 29.5729 58.4312 29.1152 58.3321C27.5307 58.0575 25.9709 57.4862 24.6773 56.5003C23.5782 55.6563 22.5863 54.6208 21.9576 53.3651C21.6505 53.781 21.3036 54.1682 21.0434 54.6183C20.7441 55.0813 20.52 55.6238 20.0654 55.9572C19.7275 56.1602 19.2782 56.2679 18.9187 56.0569C18.6941 55.9413 18.579 55.7058 18.4255 55.5168C17.9051 54.959 17.3077 54.4844 16.7181 54.0055C15.9286 53.3236 15.1589 52.608 14.5115 51.7823C13.9303 51.0673 13.3955 50.3009 13.0312 49.4471C12.332 50.008 11.6454 50.5835 10.9799 51.1847C10.7439 51.37 10.4295 51.3725 10.1452 51.3658C9.78448 51.3395 9.51348 51.0551 9.29787 50.7866C8.26804 49.4392 7.3984 47.9236 7.02501 46.2465C6.77147 44.9627 6.69739 43.63 6.92745 42.337C6.97081 42.0135 7.05633 41.6973 7.17678 41.3958C6.60043 41.4624 6.01927 41.5169 5.45557 41.6618C4.98281 41.7719 4.50343 41.9358 4.0126 41.8734C3.65547 41.767 3.2869 41.5444 3.16284 41.1664C3.06046 40.8881 3.15922 40.5958 3.17729 40.3126C3.18632 39.0227 2.91953 37.7493 2.9382 36.4588C2.91351 35.5151 3.01589 34.5725 3.17548 33.6435C3.27967 33.1579 3.38506 32.6686 3.58621 32.2129C2.7226 32.1193 1.85959 32.005 0.990551 31.975C0.774948 31.9732 0.583435 31.8545 0.422636 31.7193C0.215465 31.5628 0.0414175 31.3389 0.010101 31.071C-0.0404874 30.4539 0.110675 29.8472 0.203421 29.2423C0.522006 27.6564 1.11823 26.098 2.12879 24.8313C2.93278 23.8185 3.88312 22.8863 5.04123 22.3047C4.73348 22.0735 4.442 21.8209 4.13365 21.5916C3.71027 21.3016 3.26341 21.0484 2.84244 20.7549C2.507 20.5133 2.29019 20.1188 2.27333 19.7004C2.25707 19.4001 2.40221 19.0968 2.64431 18.9237C2.78403 18.8246 2.92616 18.7267 3.04118 18.5983C3.33327 18.2827 3.62957 17.9702 3.90179 17.6362C4.48897 16.8564 5.13638 16.1243 5.81993 15.4307C6.04577 15.2038 6.28727 14.9952 6.5384 14.7989C7.24905 14.1781 8.02955 13.6277 8.88835 13.2417C8.43245 12.6583 7.9892 12.0631 7.49476 11.5127C7.32734 11.3078 7.1021 11.1304 7.04368 10.857C6.98225 10.5188 6.95395 10.1237 7.18641 9.84175C7.59654 9.34878 8.15723 9.02524 8.66913 8.65521C9.26836 8.2913 9.85615 7.8968 10.5138 7.64787C11.5003 7.2069 12.5693 6.98916 13.6412 6.91821C14.712 6.86745 15.8141 6.91638 16.8313 7.28824C16.7596 6.81729 16.7398 6.3384 16.6326 5.87295C16.5242 5.28764 16.2923 4.71088 16.3471 4.10599C16.4423 3.73412 16.6651 3.35064 17.0403 3.21853C17.289 3.12189 17.5546 3.19223 17.8082 3.22342C18.7711 3.26012 19.7245 3.08153 20.6839 3.02465C21.4692 2.99345 22.2581 2.94942 23.0422 3.03504C24.001 3.13474 24.9796 3.26012 25.8728 3.64911C25.9529 2.78122 26.0691 1.91639 26.0962 1.04423C26.095 0.706001 26.3275 0.430161 26.5557 0.209978ZM27.8987 1.9849C27.8313 2.89865 27.7337 3.81119 27.5988 4.717C28.5515 5.49192 29.2785 6.54635 29.6747 7.71821C29.968 8.74083 29.9825 9.8338 29.8241 10.8809C31.0659 10.9506 32.3017 11.1396 33.5038 11.465C33.4785 10.9708 33.4749 10.4736 33.5098 9.97936C33.561 9.26255 33.8175 8.58793 34.0121 7.90414C34.1 7.62096 34.3017 7.35797 34.2518 7.04604C34.1759 6.16714 33.6929 5.38672 33.1226 4.74574C32.4197 3.95492 31.5965 3.25645 30.6419 2.80141C30.0084 2.46502 29.3092 2.29499 28.6238 2.10722C28.3847 2.04973 28.1414 2.01731 27.8987 1.9849ZM38.2242 4.6907C37.8098 5.43381 37.2485 6.07601 36.7185 6.73411C36.4512 7.05705 36.2759 7.44237 36.0796 7.80995C35.823 8.30292 35.6839 8.84298 35.5177 9.37019C35.4171 9.72676 35.3503 10.0956 35.3406 10.4668C35.3292 11.0301 35.3346 11.6087 35.5255 12.1451C36.8366 12.6521 38.0826 13.3378 39.2311 14.1549C39.3034 14.0026 39.3756 13.843 39.5087 13.7347C39.9514 13.3995 40.2001 12.8668 40.379 12.35C40.5271 11.9708 40.3597 11.5463 40.5428 11.1763C40.709 10.6998 41.3167 10.4827 41.7461 10.7298C42.1128 10.9494 42.3284 11.3812 42.3248 11.8099C42.3284 12.7482 41.9472 13.6448 41.4287 14.4056C41.2348 14.7488 40.9312 15.0063 40.6265 15.2442C40.7542 15.3579 40.8812 15.4717 41.0065 15.5885C41.51 15.3225 41.8972 14.8852 42.2802 14.4705C43.2703 13.2919 43.404 11.5653 42.9427 10.1323C42.7849 9.5078 42.4115 8.97692 42.0604 8.45154C41.6521 7.9335 41.2528 7.402 40.771 6.95002C39.9785 6.13167 39.0396 5.48335 38.2242 4.6907ZM18.3634 5.09559C18.5917 5.91149 18.6326 6.76347 18.7205 7.60261C18.7699 8.17815 18.9813 8.72065 19.1632 9.26255C19.4306 9.83196 19.695 10.4106 20.0641 10.9206C20.5351 11.4803 21.047 12.0313 21.7053 12.3641C21.9166 12.265 22.1425 12.1653 22.3822 12.1983C22.8495 12.235 23.2392 12.679 23.2205 13.1549C23.2205 13.5347 22.9694 13.8913 22.6213 14.0252C21.8233 14.3604 21.0554 14.7671 20.3189 15.2252C20.0051 15.4295 19.5739 15.4393 19.2674 15.2167C18.8795 14.9592 18.7477 14.3904 18.9789 13.983C19.1445 13.6564 19.5089 13.5335 19.7925 13.3402C19.3421 12.9384 18.9277 12.4949 18.5465 12.0246C18.0731 11.3506 17.7148 10.602 17.3824 9.84848C17.2926 9.68456 17.1342 9.57447 16.9921 9.46071C16.2369 8.95368 15.3143 8.8075 14.4254 8.78181C13.3443 8.78242 12.2501 8.94756 11.2521 9.38487C10.509 9.68334 9.8411 10.1414 9.18044 10.591C9.75859 11.3035 10.3319 12.0222 10.8776 12.761C12.4578 12.5953 14.1357 12.9904 15.3727 14.0326C15.8942 14.4888 16.3694 15.0008 16.7801 15.5622C16.9704 15.3677 17.2113 15.1989 17.492 15.1965C17.9647 15.1579 18.4182 15.5469 18.4628 16.0258C18.5086 16.3573 18.3544 16.6845 18.1093 16.8974C16.7813 18.0949 15.6383 19.5059 14.7566 21.0723C14.1399 22.1634 13.678 23.3396 13.2877 24.531C12.8523 26.1004 12.5795 27.7298 12.621 29.3646C12.6409 30.3866 12.6933 31.4154 12.9107 32.4166C13.1426 33.6869 13.5593 34.9144 14.0562 36.1016C14.2838 36.5903 14.5494 37.06 14.8096 37.5316C15.9129 39.5456 17.4847 41.2832 19.3264 42.6251C20.0593 43.1903 20.8561 43.6636 21.6806 44.0783C22.1491 44.3175 22.6261 44.5499 23.1338 44.6899C24.6249 45.3334 26.2425 45.6428 27.8572 45.7089C28.2366 45.7419 28.6166 45.7915 28.9978 45.7823C29.5621 45.7505 30.1258 45.7071 30.6889 45.6575C32.2059 45.5395 33.6863 45.1138 35.0931 44.5383C35.3021 44.463 35.4358 44.26 35.6472 44.1902C35.832 44.1291 36.0344 44.123 36.2054 44.0208C38.141 43.0233 39.899 41.6471 41.2853 39.9462C42.3887 38.6686 43.2414 37.1854 43.8997 35.627C44.0075 35.4099 43.9292 35.1554 44.0201 34.9334C44.0876 34.7248 44.2899 34.5964 44.3496 34.3842C44.5441 33.7597 44.7061 33.1248 44.8464 32.4863C44.9566 31.8466 45.0343 31.2013 45.0933 30.5554C45.124 30.1787 45.174 29.8019 45.1523 29.4233C45.1078 28.2386 45.0662 27.0441 44.8006 25.8851C44.5995 24.8515 44.2676 23.8496 43.8846 22.8723C43.8136 22.6717 43.6323 22.5438 43.5407 22.3561C43.4504 22.1805 43.4733 21.9695 43.3751 21.7977C41.6087 18.2026 38.4825 15.317 34.7878 13.8809C34.3993 13.8185 34.0747 13.5787 33.6953 13.4864C31.6368 12.8442 29.4525 12.6136 27.3085 12.8258C26.6738 12.8839 26.1685 12.18 26.3768 11.5769C26.0577 11.5133 25.7589 11.3096 25.6343 10.9965C25.5156 10.7549 25.5945 10.4839 25.5909 10.2289C25.5512 9.76285 25.3922 9.31392 25.1862 8.89924C25.0531 8.61606 24.7556 8.47172 24.6069 8.20078C24.3605 7.8546 24.4063 7.32616 24.7279 7.04482C25.0146 6.76592 25.4632 6.78304 25.8144 6.9072C26.2986 7.15368 26.6171 7.62952 26.8809 8.09374C27.282 8.96774 27.588 9.95306 27.3886 10.9231C27.5651 10.906 27.7427 10.8931 27.9198 10.8827C28.1131 10.0668 28.1215 9.20138 27.9222 8.38548C27.7433 7.75919 27.3856 7.20567 26.9773 6.71026C26.4112 6.08763 25.6957 5.6228 24.9285 5.30048C24.1209 5.04176 23.2747 4.94696 22.434 4.87785C21.9715 4.85033 21.5095 4.8803 21.0476 4.89681C20.1497 4.92128 19.2638 5.11455 18.3634 5.09559ZM45.0367 11.0448C45.003 11.1323 45.0337 11.2313 45.0337 11.3231C45.109 11.939 45.0174 12.5592 44.9139 13.1653C44.835 13.6307 44.6483 14.0662 44.4742 14.5011C43.9978 15.4937 43.2137 16.2962 42.3646 16.9677C43.1945 17.898 43.9141 18.9249 44.5507 19.9995C45.1806 19.2711 45.922 18.6197 46.7898 18.2007C47.162 17.9983 47.5432 17.8148 47.9257 17.6344C48.3882 17.2552 48.611 16.6613 48.7658 16.0962C49.1332 14.3494 48.8953 12.4742 48.1003 10.8803C47.81 10.3482 47.5047 9.82462 47.1626 9.32615C46.4586 9.90475 45.7558 10.4858 45.0367 11.0448ZM9.31353 15.1286C8.87209 15.3781 8.4457 15.6589 8.05063 15.9793C7.70796 16.2827 7.33276 16.5494 7.01899 16.8858C6.66246 17.2778 6.28907 17.6533 5.95242 18.0637C5.51881 18.6075 5.09844 19.164 4.61002 19.6594C5.39414 20.1151 6.06444 20.7359 6.77026 21.3016C7.37732 21.7304 8.05183 22.0594 8.75947 22.2772C9.82062 22.6374 10.9992 22.7414 12.0748 22.3824C12.5915 21.0705 13.2546 19.8203 14.0568 18.6662C13.9249 18.6203 13.7876 18.5818 13.6738 18.498C13.4871 18.3647 13.3859 18.142 13.1944 18.0136C12.8668 17.7861 12.5132 17.591 12.1356 17.4631C11.7677 17.3286 11.3599 17.4882 11.0022 17.3059C10.5168 17.1341 10.3096 16.4821 10.5825 16.0466C10.795 15.7322 11.1552 15.5023 11.5394 15.5145C12.3169 15.4503 13.0643 15.7475 13.7328 16.1212C14.2507 16.4307 14.771 16.7903 15.0674 17.3384C15.1884 17.2032 15.3119 17.0692 15.4329 16.9341C15.2932 16.7573 15.1986 16.5488 15.0475 16.3806C14.6578 15.9225 14.2393 15.4754 13.7244 15.1604C13.092 14.8093 12.3753 14.6289 11.6563 14.6081C10.8492 14.6044 10.0471 14.7904 9.31353 15.1286ZM49.6902 19.0741C49.2036 19.2062 48.714 19.3494 48.2557 19.564C47.8148 19.805 47.3475 20.0013 46.9422 20.3023C46.3833 20.753 45.8479 21.2601 45.4974 21.8992C46.0611 23.2252 46.4785 24.6154 46.7326 26.0368C46.8976 25.9836 47.0705 25.9493 47.2439 25.9775C47.6432 26.0331 48.0407 25.912 48.4105 25.7677C48.6815 25.6625 48.9633 25.5408 49.1554 25.3096C49.3975 25.0013 49.7998 24.7946 50.1931 24.8631C50.5773 24.931 50.8875 25.3004 50.8797 25.6992C50.8742 25.9359 50.8279 26.1824 50.6954 26.3811C50.4346 26.7683 50.0492 27.0472 49.6553 27.2802C48.817 27.6906 47.8817 27.9903 46.9422 27.8478C46.9524 28.0221 46.9633 28.1976 46.9741 28.3726C47.7528 28.5701 48.5851 28.5493 49.362 28.3506C50.8038 27.8827 51.9083 26.6301 52.4039 25.2019C52.6111 24.4454 52.7171 23.6649 52.7737 22.8833C52.8701 21.4698 52.6087 20.0698 52.5605 18.6607C51.6252 18.9292 50.6442 18.9218 49.6902 19.0741ZM4.97016 24.5885C4.33962 25.0918 3.79037 25.6998 3.32906 26.3646C3.02251 26.7677 2.82137 27.2399 2.60034 27.6937C2.29501 28.4814 2.0511 29.3035 1.95474 30.1469C2.85268 30.2197 3.75002 30.3187 4.64134 30.4527C4.73107 30.3542 4.819 30.2539 4.90211 30.1499C5.26586 29.7004 5.74043 29.3646 6.20295 29.0294C6.63898 28.7206 7.14064 28.5298 7.63207 28.3347C8.65227 28.0386 9.73209 28.0545 10.7764 28.1946C10.8456 26.934 11.0642 25.6851 11.3726 24.4631C10.8432 24.509 10.3108 24.4821 9.78208 24.4441C9.05095 24.3659 8.34212 24.1463 7.65375 23.8912C7.40503 23.8099 7.16594 23.6417 6.89252 23.698C6.18067 23.7805 5.517 24.1285 4.97016 24.5885ZM49.9992 30.1334C49.0266 30.4374 47.9859 30.4392 46.9838 30.3151C46.8826 31.5622 46.7417 32.8135 46.3942 34.0184C47.0187 34.0105 47.6498 33.9829 48.2665 34.1053C48.7616 34.1891 49.2289 34.3811 49.7113 34.5144C49.9588 34.5854 50.1811 34.7303 50.431 34.7933C51.0772 34.8025 51.7029 34.5414 52.2335 34.1811C52.9881 33.6563 53.6319 32.9805 54.1745 32.2362C54.6003 31.6667 54.8978 31.0117 55.158 30.3512C55.3652 29.6931 55.529 29.0221 55.6512 28.3432C54.7436 28.2637 53.8367 28.1726 52.9363 28.0313C52.1841 29.0001 51.1452 29.7304 49.9992 30.1334ZM7.29783 30.5622C6.9142 30.8429 6.50468 31.1071 6.22222 31.5016C5.89581 31.8374 5.65913 32.2453 5.44955 32.6631C5.19902 33.0747 5.10206 33.5542 5.00329 34.0209C4.84189 34.9469 4.75095 35.8888 4.79973 36.83C4.82262 37.8306 5.01895 38.819 5.01895 39.8208C5.89099 39.5915 6.79496 39.5548 7.68567 39.4478C8.42462 39.2979 9.14912 39.052 9.81159 38.6832C10.2428 38.4447 10.6842 38.205 11.0365 37.8514C11.4696 37.4398 11.9062 37.0062 12.1579 36.4502C12.1633 36.364 12.1158 36.2863 12.0911 36.2074C11.587 34.9713 11.2311 33.6759 11.001 32.3585C10.7993 32.471 10.571 32.5487 10.3385 32.5065C10.0031 32.446 9.67668 32.567 9.35689 32.6496C9.00518 32.7732 8.62878 32.9132 8.38728 33.2166C8.19035 33.4374 7.92597 33.6331 7.62304 33.6472C7.2105 33.6894 6.80459 33.3726 6.72991 32.9609C6.69137 32.6417 6.72449 32.2882 6.93407 32.0319C7.38877 31.4294 8.08857 31.0857 8.78115 30.8478C9.43338 30.6509 10.1404 30.4912 10.8125 30.6894C10.7987 30.5065 10.7884 30.323 10.7782 30.1401C9.62188 29.8704 8.32706 29.9004 7.29783 30.5622ZM45.7474 36.0404C45.2096 37.3884 44.529 38.6771 43.7148 39.8734C43.9768 39.9805 44.1255 40.2276 44.3212 40.4166C44.673 40.6918 45.0734 40.9083 45.5004 41.0355C45.8341 41.1438 46.1966 41.0062 46.5218 41.1566C46.9898 41.29 47.2475 41.863 47.0578 42.3144C46.8663 42.7487 46.3857 43 45.9268 42.9878C45.4691 42.9744 45.003 42.9034 44.582 42.7138C43.8256 42.4135 43.0921 41.9689 42.6 41.2985C42.4916 41.4257 42.382 41.5517 42.2706 41.6759C42.3893 41.9854 42.6265 42.2184 42.8409 42.46C43.2733 42.9144 43.7563 43.3529 44.3574 43.5578C44.791 43.764 45.2734 43.8123 45.7425 43.8734C46.8332 43.9046 47.966 43.6477 48.8615 42.9909C50.0251 42.2276 51.0067 41.2123 51.8764 40.1242C52.2275 39.6783 52.5828 39.2349 52.9682 38.819C52.1642 38.3744 51.4988 37.7236 50.7791 37.1585C50.1865 36.7664 49.5487 36.4337 48.867 36.2349C48.3798 36.0729 47.8835 35.9163 47.3674 35.8979C46.8254 35.882 46.2713 35.879 45.7474 36.0404ZM11.4033 39.9358C10.9101 40.2471 10.3964 40.5279 9.85796 40.7505C9.75196 40.7982 9.63814 40.8404 9.55744 40.9285C9.20693 41.2845 9.01121 41.7609 8.85824 42.2312C8.53784 43.4471 8.61011 44.734 8.87149 45.9542C9.15213 47.1297 9.75196 48.1908 10.4313 49.1725C10.7198 48.8893 11.0432 48.6471 11.3539 48.3908C11.7526 48.0722 12.1374 47.7334 12.5632 47.4514C12.4669 46.3872 12.565 45.2832 12.9866 44.2961C13.4196 43.1266 14.323 42.208 15.2902 41.4716C14.4772 40.515 13.7322 39.4949 13.1438 38.3787C12.6102 38.9462 12.0772 39.5364 11.4033 39.9358ZM15.3269 43.9811C15.0342 44.3199 14.8054 44.7107 14.6602 45.1377C14.2706 46.1951 14.3115 47.3866 14.6723 48.4459C14.8451 49.0569 15.2077 49.5866 15.5708 50.0954C16.0617 50.7529 16.5995 51.3749 17.2077 51.9236C17.8895 52.5866 18.6778 53.1236 19.3535 53.7927C19.7088 53.1798 20.1509 52.6275 20.5935 52.0789C21.4583 51.104 21.9353 49.8398 22.1871 48.5688C22.2786 47.8239 22.3033 47.0404 22.0552 46.3224C21.7733 46.2068 21.4903 46.0948 21.218 45.9572C20.2256 45.4673 19.2487 44.9303 18.367 44.2526C18.308 44.4068 18.252 44.5701 18.1328 44.6887C17.9906 44.8312 17.8172 44.9444 17.7082 45.1187C17.4769 45.4899 17.2451 45.874 17.1559 46.3101C17.0879 46.6092 17.1921 46.9272 17.0698 47.2172C16.9753 47.5658 16.6537 47.8441 16.2935 47.852C15.7346 47.8997 15.2842 47.3352 15.2757 46.8019C15.2155 46.1389 15.407 45.4887 15.6816 44.8948C16.0129 44.2514 16.3995 43.5994 17.0174 43.2007C16.8939 43.0844 16.7693 42.9688 16.6452 42.8545C16.1327 43.1328 15.7184 43.5523 15.3269 43.9811ZM37.9001 45.2459C38.4952 45.7994 39.0558 46.4074 39.4557 47.1248C39.6978 47.5805 39.9616 48.0275 40.1369 48.5162C40.1905 48.6881 40.3248 48.8098 40.4585 48.9199C41.133 49.4697 42.0171 49.6251 42.8566 49.6893C44.2189 49.759 45.6064 49.5003 46.8284 48.8746C47.371 48.5762 47.913 48.2704 48.4038 47.8881C47.8167 47.1847 47.2548 46.4575 46.7007 45.7297C46.4219 45.7224 46.146 45.7823 45.8678 45.7676C44.8837 45.7358 43.8979 45.5034 43.03 45.0245C42.1869 44.5395 41.4961 43.8251 40.8981 43.06C39.9737 43.8881 38.9673 44.6196 37.9001 45.2459ZM31.9211 47.4141C32.0548 47.6789 31.9994 47.9737 31.9879 48.2569C32.0716 48.7982 32.2144 49.3566 32.5414 49.8031C32.8202 50.0563 33.1147 50.3633 33.1292 50.7682C33.1653 51.2067 32.816 51.6281 32.3866 51.671C32.0891 51.6869 31.7711 51.6294 31.5344 51.4349C31.0539 51.0624 30.7341 50.5199 30.5149 49.956C30.2312 49.2116 30.0246 48.3951 30.1824 47.5964C30.0078 47.6104 29.8331 47.6239 29.6585 47.6379C29.467 48.4594 29.4645 49.3358 29.6789 50.1535C30.1451 51.6159 31.3845 52.7395 32.7973 53.2281C33.9506 53.5492 35.1563 53.6599 36.3494 53.6018C37.3075 53.5682 38.2573 53.4018 39.2166 53.3878C38.9679 52.5132 38.9492 51.5976 38.8427 50.6997C38.6825 49.8355 38.3747 49.0006 37.9339 48.2434C37.6219 47.6135 37.1383 47.093 36.6246 46.6288C36.4222 46.4808 36.2277 46.285 35.985 46.2233C34.6727 46.7487 33.3201 47.1976 31.9211 47.4141ZM24.0895 47.0288C24.1034 47.378 24.1172 47.7279 24.0937 48.0777C24.0775 49.1407 23.7306 50.1609 23.359 51.1431C23.2753 51.4434 23.3656 51.7615 23.4512 52.0526C23.7198 52.9425 24.3449 53.6563 24.9833 54.2985C25.5259 54.7988 26.1034 55.2765 26.7725 55.5927C27.6699 56.0911 28.678 56.3321 29.6777 56.5131C29.7554 55.5951 29.8494 54.6777 29.9807 53.7664C29.4007 53.3101 28.9364 52.7248 28.5323 52.1083C28.0246 51.2869 27.7054 50.3401 27.6783 49.3664C27.6367 48.7853 27.6777 48.2019 27.7512 47.6251C26.5178 47.523 25.2826 47.3737 24.0895 47.0288Z"/>
</mask>
<path d="M26.5557 0.209978C26.8833 -0.0780946 27.3459 0.00202752 27.7409 0.0387246C28.9069 0.18796 30.059 0.479702 31.1424 0.945143C32.118 1.38123 33.0129 1.99346 33.7868 2.73719C34.5131 3.42709 35.178 4.20324 35.6213 5.11455C36.1476 4.49865 36.5897 3.81669 37.0016 3.11761C37.1431 2.89988 37.3003 2.68336 37.5099 2.52862C37.8598 2.31517 38.3344 2.20936 38.6987 2.44911C38.9444 2.58979 39.0378 2.87969 39.2431 3.06379C39.7888 3.59345 40.3585 4.09804 40.9547 4.56776C41.354 4.91271 41.7461 5.26745 42.1195 5.64176C42.6597 6.15797 43.1119 6.75858 43.5745 7.34451C43.9352 7.8864 44.3068 8.42707 44.5441 9.0393C45.2017 8.49619 45.8823 7.97937 46.4977 7.38549C46.7073 7.16347 47.0199 7.10965 47.3102 7.11515C47.5475 7.09864 47.7835 7.19344 47.957 7.35613C48.3936 7.76041 48.6959 8.28212 49.0398 8.76408C49.5349 9.57753 50.0179 10.4112 50.2973 11.3304C50.5508 12.0161 50.6556 12.7433 50.746 13.4662C50.8363 14.6797 50.8068 15.931 50.4159 17.0925C50.7682 17.0478 51.1212 17.0093 51.4729 16.9634C52.1733 16.8619 52.849 16.5402 53.5675 16.6069C53.9378 16.7096 54.3203 16.9451 54.4395 17.339C54.5431 17.6319 54.4082 17.931 54.4118 18.2277C54.4046 19.1322 54.5389 20.0283 54.6009 20.9286C54.6979 22.2931 54.6449 23.6741 54.3672 25.0154C54.2703 25.4454 54.1763 25.8784 53.992 26.2808C54.8563 26.3591 55.7169 26.4821 56.5853 26.5071C56.8629 26.5041 57.0966 26.6839 57.2851 26.8735C57.4471 27.0276 57.5621 27.2399 57.5754 27.468C57.5971 27.9616 57.529 28.4545 57.4296 28.9365C57.3357 29.5848 57.1406 30.2111 56.9641 30.8392C56.7732 31.3952 56.5239 31.9285 56.2523 32.4478C55.8993 33.12 55.4176 33.7102 54.9315 34.2851C54.2329 35.0276 53.4633 35.7291 52.5437 36.175C53.1495 36.7144 53.8246 37.164 54.5196 37.5756C54.7948 37.7762 55.102 37.9952 55.2092 38.3401C55.3362 38.6472 55.3561 39.0221 55.1682 39.3095C55.0285 39.5517 54.7551 39.6551 54.5702 39.8539C54.1613 40.2808 53.7801 40.734 53.4139 41.1994C52.5226 42.3426 51.5072 43.3915 50.3497 44.2581C49.8197 44.6245 49.2873 44.9958 48.6899 45.2435C49.1205 45.7927 49.5433 46.3487 50.0022 46.874C50.2021 47.1168 50.4774 47.3285 50.5424 47.6557C50.5876 47.959 50.6231 48.3022 50.443 48.5707C50.1648 48.9829 49.7288 49.2398 49.3421 49.534C48.8628 49.9009 48.3334 50.1908 47.81 50.4881C46.5273 51.1786 45.0819 51.5468 43.6311 51.5768C42.6657 51.6061 41.6804 51.5266 40.762 51.2043C40.8126 51.6544 40.8379 52.1089 40.936 52.5523C41.0396 53.1584 41.2866 53.7486 41.2348 54.3743C41.1366 54.8661 40.7391 55.3731 40.1983 55.3291C39.2793 55.1664 38.35 55.3523 37.431 55.4177C36.3945 55.5095 35.3478 55.5388 34.312 55.4294C33.4303 55.3339 32.5396 55.1896 31.7181 54.8385C31.6188 55.7242 31.5116 56.6104 31.4808 57.5015C31.4724 57.7737 31.2978 57.9994 31.1177 58.1847C30.9605 58.3529 30.7425 58.4709 30.5106 58.4764C30.0415 58.493 29.5729 58.4312 29.1152 58.3321C27.5307 58.0575 25.9709 57.4862 24.6773 56.5003C23.5782 55.6563 22.5863 54.6208 21.9576 53.3651C21.6505 53.781 21.3036 54.1682 21.0434 54.6183C20.7441 55.0813 20.52 55.6238 20.0654 55.9572C19.7275 56.1602 19.2782 56.2679 18.9187 56.0569C18.6941 55.9413 18.579 55.7058 18.4255 55.5168C17.9051 54.959 17.3077 54.4844 16.7181 54.0055C15.9286 53.3236 15.1589 52.608 14.5115 51.7823C13.9303 51.0673 13.3955 50.3009 13.0312 49.4471C12.332 50.008 11.6454 50.5835 10.9799 51.1847C10.7439 51.37 10.4295 51.3725 10.1452 51.3658C9.78448 51.3395 9.51348 51.0551 9.29787 50.7866C8.26804 49.4392 7.3984 47.9236 7.02501 46.2465C6.77147 44.9627 6.69739 43.63 6.92745 42.337C6.97081 42.0135 7.05633 41.6973 7.17678 41.3958C6.60043 41.4624 6.01927 41.5169 5.45557 41.6618C4.98281 41.7719 4.50343 41.9358 4.0126 41.8734C3.65547 41.767 3.2869 41.5444 3.16284 41.1664C3.06046 40.8881 3.15922 40.5958 3.17729 40.3126C3.18632 39.0227 2.91953 37.7493 2.9382 36.4588C2.91351 35.5151 3.01589 34.5725 3.17548 33.6435C3.27967 33.1579 3.38506 32.6686 3.58621 32.2129C2.7226 32.1193 1.85959 32.005 0.990551 31.975C0.774948 31.9732 0.583435 31.8545 0.422636 31.7193C0.215465 31.5628 0.0414175 31.3389 0.010101 31.071C-0.0404874 30.4539 0.110675 29.8472 0.203421 29.2423C0.522006 27.6564 1.11823 26.098 2.12879 24.8313C2.93278 23.8185 3.88312 22.8863 5.04123 22.3047C4.73348 22.0735 4.442 21.8209 4.13365 21.5916C3.71027 21.3016 3.26341 21.0484 2.84244 20.7549C2.507 20.5133 2.29019 20.1188 2.27333 19.7004C2.25707 19.4001 2.40221 19.0968 2.64431 18.9237C2.78403 18.8246 2.92616 18.7267 3.04118 18.5983C3.33327 18.2827 3.62957 17.9702 3.90179 17.6362C4.48897 16.8564 5.13638 16.1243 5.81993 15.4307C6.04577 15.2038 6.28727 14.9952 6.5384 14.7989C7.24905 14.1781 8.02955 13.6277 8.88835 13.2417C8.43245 12.6583 7.9892 12.0631 7.49476 11.5127C7.32734 11.3078 7.1021 11.1304 7.04368 10.857C6.98225 10.5188 6.95395 10.1237 7.18641 9.84175C7.59654 9.34878 8.15723 9.02524 8.66913 8.65521C9.26836 8.2913 9.85615 7.8968 10.5138 7.64787C11.5003 7.2069 12.5693 6.98916 13.6412 6.91821C14.712 6.86745 15.8141 6.91638 16.8313 7.28824C16.7596 6.81729 16.7398 6.3384 16.6326 5.87295C16.5242 5.28764 16.2923 4.71088 16.3471 4.10599C16.4423 3.73412 16.6651 3.35064 17.0403 3.21853C17.289 3.12189 17.5546 3.19223 17.8082 3.22342C18.7711 3.26012 19.7245 3.08153 20.6839 3.02465C21.4692 2.99345 22.2581 2.94942 23.0422 3.03504C24.001 3.13474 24.9796 3.26012 25.8728 3.64911C25.9529 2.78122 26.0691 1.91639 26.0962 1.04423C26.095 0.706001 26.3275 0.430161 26.5557 0.209978ZM27.8987 1.9849C27.8313 2.89865 27.7337 3.81119 27.5988 4.717C28.5515 5.49192 29.2785 6.54635 29.6747 7.71821C29.968 8.74083 29.9825 9.8338 29.8241 10.8809C31.0659 10.9506 32.3017 11.1396 33.5038 11.465C33.4785 10.9708 33.4749 10.4736 33.5098 9.97936C33.561 9.26255 33.8175 8.58793 34.0121 7.90414C34.1 7.62096 34.3017 7.35797 34.2518 7.04604C34.1759 6.16714 33.6929 5.38672 33.1226 4.74574C32.4197 3.95492 31.5965 3.25645 30.6419 2.80141C30.0084 2.46502 29.3092 2.29499 28.6238 2.10722C28.3847 2.04973 28.1414 2.01731 27.8987 1.9849ZM38.2242 4.6907C37.8098 5.43381 37.2485 6.07601 36.7185 6.73411C36.4512 7.05705 36.2759 7.44237 36.0796 7.80995C35.823 8.30292 35.6839 8.84298 35.5177 9.37019C35.4171 9.72676 35.3503 10.0956 35.3406 10.4668C35.3292 11.0301 35.3346 11.6087 35.5255 12.1451C36.8366 12.6521 38.0826 13.3378 39.2311 14.1549C39.3034 14.0026 39.3756 13.843 39.5087 13.7347C39.9514 13.3995 40.2001 12.8668 40.379 12.35C40.5271 11.9708 40.3597 11.5463 40.5428 11.1763C40.709 10.6998 41.3167 10.4827 41.7461 10.7298C42.1128 10.9494 42.3284 11.3812 42.3248 11.8099C42.3284 12.7482 41.9472 13.6448 41.4287 14.4056C41.2348 14.7488 40.9312 15.0063 40.6265 15.2442C40.7542 15.3579 40.8812 15.4717 41.0065 15.5885C41.51 15.3225 41.8972 14.8852 42.2802 14.4705C43.2703 13.2919 43.404 11.5653 42.9427 10.1323C42.7849 9.5078 42.4115 8.97692 42.0604 8.45154C41.6521 7.9335 41.2528 7.402 40.771 6.95002C39.9785 6.13167 39.0396 5.48335 38.2242 4.6907ZM18.3634 5.09559C18.5917 5.91149 18.6326 6.76347 18.7205 7.60261C18.7699 8.17815 18.9813 8.72065 19.1632 9.26255C19.4306 9.83196 19.695 10.4106 20.0641 10.9206C20.5351 11.4803 21.047 12.0313 21.7053 12.3641C21.9166 12.265 22.1425 12.1653 22.3822 12.1983C22.8495 12.235 23.2392 12.679 23.2205 13.1549C23.2205 13.5347 22.9694 13.8913 22.6213 14.0252C21.8233 14.3604 21.0554 14.7671 20.3189 15.2252C20.0051 15.4295 19.5739 15.4393 19.2674 15.2167C18.8795 14.9592 18.7477 14.3904 18.9789 13.983C19.1445 13.6564 19.5089 13.5335 19.7925 13.3402C19.3421 12.9384 18.9277 12.4949 18.5465 12.0246C18.0731 11.3506 17.7148 10.602 17.3824 9.84848C17.2926 9.68456 17.1342 9.57447 16.9921 9.46071C16.2369 8.95368 15.3143 8.8075 14.4254 8.78181C13.3443 8.78242 12.2501 8.94756 11.2521 9.38487C10.509 9.68334 9.8411 10.1414 9.18044 10.591C9.75859 11.3035 10.3319 12.0222 10.8776 12.761C12.4578 12.5953 14.1357 12.9904 15.3727 14.0326C15.8942 14.4888 16.3694 15.0008 16.7801 15.5622C16.9704 15.3677 17.2113 15.1989 17.492 15.1965C17.9647 15.1579 18.4182 15.5469 18.4628 16.0258C18.5086 16.3573 18.3544 16.6845 18.1093 16.8974C16.7813 18.0949 15.6383 19.5059 14.7566 21.0723C14.1399 22.1634 13.678 23.3396 13.2877 24.531C12.8523 26.1004 12.5795 27.7298 12.621 29.3646C12.6409 30.3866 12.6933 31.4154 12.9107 32.4166C13.1426 33.6869 13.5593 34.9144 14.0562 36.1016C14.2838 36.5903 14.5494 37.06 14.8096 37.5316C15.9129 39.5456 17.4847 41.2832 19.3264 42.6251C20.0593 43.1903 20.8561 43.6636 21.6806 44.0783C22.1491 44.3175 22.6261 44.5499 23.1338 44.6899C24.6249 45.3334 26.2425 45.6428 27.8572 45.7089C28.2366 45.7419 28.6166 45.7915 28.9978 45.7823C29.5621 45.7505 30.1258 45.7071 30.6889 45.6575C32.2059 45.5395 33.6863 45.1138 35.0931 44.5383C35.3021 44.463 35.4358 44.26 35.6472 44.1902C35.832 44.1291 36.0344 44.123 36.2054 44.0208C38.141 43.0233 39.899 41.6471 41.2853 39.9462C42.3887 38.6686 43.2414 37.1854 43.8997 35.627C44.0075 35.4099 43.9292 35.1554 44.0201 34.9334C44.0876 34.7248 44.2899 34.5964 44.3496 34.3842C44.5441 33.7597 44.7061 33.1248 44.8464 32.4863C44.9566 31.8466 45.0343 31.2013 45.0933 30.5554C45.124 30.1787 45.174 29.8019 45.1523 29.4233C45.1078 28.2386 45.0662 27.0441 44.8006 25.8851C44.5995 24.8515 44.2676 23.8496 43.8846 22.8723C43.8136 22.6717 43.6323 22.5438 43.5407 22.3561C43.4504 22.1805 43.4733 21.9695 43.3751 21.7977C41.6087 18.2026 38.4825 15.317 34.7878 13.8809C34.3993 13.8185 34.0747 13.5787 33.6953 13.4864C31.6368 12.8442 29.4525 12.6136 27.3085 12.8258C26.6738 12.8839 26.1685 12.18 26.3768 11.5769C26.0577 11.5133 25.7589 11.3096 25.6343 10.9965C25.5156 10.7549 25.5945 10.4839 25.5909 10.2289C25.5512 9.76285 25.3922 9.31392 25.1862 8.89924C25.0531 8.61606 24.7556 8.47172 24.6069 8.20078C24.3605 7.8546 24.4063 7.32616 24.7279 7.04482C25.0146 6.76592 25.4632 6.78304 25.8144 6.9072C26.2986 7.15368 26.6171 7.62952 26.8809 8.09374C27.282 8.96774 27.588 9.95306 27.3886 10.9231C27.5651 10.906 27.7427 10.8931 27.9198 10.8827C28.1131 10.0668 28.1215 9.20138 27.9222 8.38548C27.7433 7.75919 27.3856 7.20567 26.9773 6.71026C26.4112 6.08763 25.6957 5.6228 24.9285 5.30048C24.1209 5.04176 23.2747 4.94696 22.434 4.87785C21.9715 4.85033 21.5095 4.8803 21.0476 4.89681C20.1497 4.92128 19.2638 5.11455 18.3634 5.09559ZM45.0367 11.0448C45.003 11.1323 45.0337 11.2313 45.0337 11.3231C45.109 11.939 45.0174 12.5592 44.9139 13.1653C44.835 13.6307 44.6483 14.0662 44.4742 14.5011C43.9978 15.4937 43.2137 16.2962 42.3646 16.9677C43.1945 17.898 43.9141 18.9249 44.5507 19.9995C45.1806 19.2711 45.922 18.6197 46.7898 18.2007C47.162 17.9983 47.5432 17.8148 47.9257 17.6344C48.3882 17.2552 48.611 16.6613 48.7658 16.0962C49.1332 14.3494 48.8953 12.4742 48.1003 10.8803C47.81 10.3482 47.5047 9.82462 47.1626 9.32615C46.4586 9.90475 45.7558 10.4858 45.0367 11.0448ZM9.31353 15.1286C8.87209 15.3781 8.4457 15.6589 8.05063 15.9793C7.70796 16.2827 7.33276 16.5494 7.01899 16.8858C6.66246 17.2778 6.28907 17.6533 5.95242 18.0637C5.51881 18.6075 5.09844 19.164 4.61002 19.6594C5.39414 20.1151 6.06444 20.7359 6.77026 21.3016C7.37732 21.7304 8.05183 22.0594 8.75947 22.2772C9.82062 22.6374 10.9992 22.7414 12.0748 22.3824C12.5915 21.0705 13.2546 19.8203 14.0568 18.6662C13.9249 18.6203 13.7876 18.5818 13.6738 18.498C13.4871 18.3647 13.3859 18.142 13.1944 18.0136C12.8668 17.7861 12.5132 17.591 12.1356 17.4631C11.7677 17.3286 11.3599 17.4882 11.0022 17.3059C10.5168 17.1341 10.3096 16.4821 10.5825 16.0466C10.795 15.7322 11.1552 15.5023 11.5394 15.5145C12.3169 15.4503 13.0643 15.7475 13.7328 16.1212C14.2507 16.4307 14.771 16.7903 15.0674 17.3384C15.1884 17.2032 15.3119 17.0692 15.4329 16.9341C15.2932 16.7573 15.1986 16.5488 15.0475 16.3806C14.6578 15.9225 14.2393 15.4754 13.7244 15.1604C13.092 14.8093 12.3753 14.6289 11.6563 14.6081C10.8492 14.6044 10.0471 14.7904 9.31353 15.1286ZM49.6902 19.0741C49.2036 19.2062 48.714 19.3494 48.2557 19.564C47.8148 19.805 47.3475 20.0013 46.9422 20.3023C46.3833 20.753 45.8479 21.2601 45.4974 21.8992C46.0611 23.2252 46.4785 24.6154 46.7326 26.0368C46.8976 25.9836 47.0705 25.9493 47.2439 25.9775C47.6432 26.0331 48.0407 25.912 48.4105 25.7677C48.6815 25.6625 48.9633 25.5408 49.1554 25.3096C49.3975 25.0013 49.7998 24.7946 50.1931 24.8631C50.5773 24.931 50.8875 25.3004 50.8797 25.6992C50.8742 25.9359 50.8279 26.1824 50.6954 26.3811C50.4346 26.7683 50.0492 27.0472 49.6553 27.2802C48.817 27.6906 47.8817 27.9903 46.9422 27.8478C46.9524 28.0221 46.9633 28.1976 46.9741 28.3726C47.7528 28.5701 48.5851 28.5493 49.362 28.3506C50.8038 27.8827 51.9083 26.6301 52.4039 25.2019C52.6111 24.4454 52.7171 23.6649 52.7737 22.8833C52.8701 21.4698 52.6087 20.0698 52.5605 18.6607C51.6252 18.9292 50.6442 18.9218 49.6902 19.0741ZM4.97016 24.5885C4.33962 25.0918 3.79037 25.6998 3.32906 26.3646C3.02251 26.7677 2.82137 27.2399 2.60034 27.6937C2.29501 28.4814 2.0511 29.3035 1.95474 30.1469C2.85268 30.2197 3.75002 30.3187 4.64134 30.4527C4.73107 30.3542 4.819 30.2539 4.90211 30.1499C5.26586 29.7004 5.74043 29.3646 6.20295 29.0294C6.63898 28.7206 7.14064 28.5298 7.63207 28.3347C8.65227 28.0386 9.73209 28.0545 10.7764 28.1946C10.8456 26.934 11.0642 25.6851 11.3726 24.4631C10.8432 24.509 10.3108 24.4821 9.78208 24.4441C9.05095 24.3659 8.34212 24.1463 7.65375 23.8912C7.40503 23.8099 7.16594 23.6417 6.89252 23.698C6.18067 23.7805 5.517 24.1285 4.97016 24.5885ZM49.9992 30.1334C49.0266 30.4374 47.9859 30.4392 46.9838 30.3151C46.8826 31.5622 46.7417 32.8135 46.3942 34.0184C47.0187 34.0105 47.6498 33.9829 48.2665 34.1053C48.7616 34.1891 49.2289 34.3811 49.7113 34.5144C49.9588 34.5854 50.1811 34.7303 50.431 34.7933C51.0772 34.8025 51.7029 34.5414 52.2335 34.1811C52.9881 33.6563 53.6319 32.9805 54.1745 32.2362C54.6003 31.6667 54.8978 31.0117 55.158 30.3512C55.3652 29.6931 55.529 29.0221 55.6512 28.3432C54.7436 28.2637 53.8367 28.1726 52.9363 28.0313C52.1841 29.0001 51.1452 29.7304 49.9992 30.1334ZM7.29783 30.5622C6.9142 30.8429 6.50468 31.1071 6.22222 31.5016C5.89581 31.8374 5.65913 32.2453 5.44955 32.6631C5.19902 33.0747 5.10206 33.5542 5.00329 34.0209C4.84189 34.9469 4.75095 35.8888 4.79973 36.83C4.82262 37.8306 5.01895 38.819 5.01895 39.8208C5.89099 39.5915 6.79496 39.5548 7.68567 39.4478C8.42462 39.2979 9.14912 39.052 9.81159 38.6832C10.2428 38.4447 10.6842 38.205 11.0365 37.8514C11.4696 37.4398 11.9062 37.0062 12.1579 36.4502C12.1633 36.364 12.1158 36.2863 12.0911 36.2074C11.587 34.9713 11.2311 33.6759 11.001 32.3585C10.7993 32.471 10.571 32.5487 10.3385 32.5065C10.0031 32.446 9.67668 32.567 9.35689 32.6496C9.00518 32.7732 8.62878 32.9132 8.38728 33.2166C8.19035 33.4374 7.92597 33.6331 7.62304 33.6472C7.2105 33.6894 6.80459 33.3726 6.72991 32.9609C6.69137 32.6417 6.72449 32.2882 6.93407 32.0319C7.38877 31.4294 8.08857 31.0857 8.78115 30.8478C9.43338 30.6509 10.1404 30.4912 10.8125 30.6894C10.7987 30.5065 10.7884 30.323 10.7782 30.1401C9.62188 29.8704 8.32706 29.9004 7.29783 30.5622ZM45.7474 36.0404C45.2096 37.3884 44.529 38.6771 43.7148 39.8734C43.9768 39.9805 44.1255 40.2276 44.3212 40.4166C44.673 40.6918 45.0734 40.9083 45.5004 41.0355C45.8341 41.1438 46.1966 41.0062 46.5218 41.1566C46.9898 41.29 47.2475 41.863 47.0578 42.3144C46.8663 42.7487 46.3857 43 45.9268 42.9878C45.4691 42.9744 45.003 42.9034 44.582 42.7138C43.8256 42.4135 43.0921 41.9689 42.6 41.2985C42.4916 41.4257 42.382 41.5517 42.2706 41.6759C42.3893 41.9854 42.6265 42.2184 42.8409 42.46C43.2733 42.9144 43.7563 43.3529 44.3574 43.5578C44.791 43.764 45.2734 43.8123 45.7425 43.8734C46.8332 43.9046 47.966 43.6477 48.8615 42.9909C50.0251 42.2276 51.0067 41.2123 51.8764 40.1242C52.2275 39.6783 52.5828 39.2349 52.9682 38.819C52.1642 38.3744 51.4988 37.7236 50.7791 37.1585C50.1865 36.7664 49.5487 36.4337 48.867 36.2349C48.3798 36.0729 47.8835 35.9163 47.3674 35.8979C46.8254 35.882 46.2713 35.879 45.7474 36.0404ZM11.4033 39.9358C10.9101 40.2471 10.3964 40.5279 9.85796 40.7505C9.75196 40.7982 9.63814 40.8404 9.55744 40.9285C9.20693 41.2845 9.01121 41.7609 8.85824 42.2312C8.53784 43.4471 8.61011 44.734 8.87149 45.9542C9.15213 47.1297 9.75196 48.1908 10.4313 49.1725C10.7198 48.8893 11.0432 48.6471 11.3539 48.3908C11.7526 48.0722 12.1374 47.7334 12.5632 47.4514C12.4669 46.3872 12.565 45.2832 12.9866 44.2961C13.4196 43.1266 14.323 42.208 15.2902 41.4716C14.4772 40.515 13.7322 39.4949 13.1438 38.3787C12.6102 38.9462 12.0772 39.5364 11.4033 39.9358ZM15.3269 43.9811C15.0342 44.3199 14.8054 44.7107 14.6602 45.1377C14.2706 46.1951 14.3115 47.3866 14.6723 48.4459C14.8451 49.0569 15.2077 49.5866 15.5708 50.0954C16.0617 50.7529 16.5995 51.3749 17.2077 51.9236C17.8895 52.5866 18.6778 53.1236 19.3535 53.7927C19.7088 53.1798 20.1509 52.6275 20.5935 52.0789C21.4583 51.104 21.9353 49.8398 22.1871 48.5688C22.2786 47.8239 22.3033 47.0404 22.0552 46.3224C21.7733 46.2068 21.4903 46.0948 21.218 45.9572C20.2256 45.4673 19.2487 44.9303 18.367 44.2526C18.308 44.4068 18.252 44.5701 18.1328 44.6887C17.9906 44.8312 17.8172 44.9444 17.7082 45.1187C17.4769 45.4899 17.2451 45.874 17.1559 46.3101C17.0879 46.6092 17.1921 46.9272 17.0698 47.2172C16.9753 47.5658 16.6537 47.8441 16.2935 47.852C15.7346 47.8997 15.2842 47.3352 15.2757 46.8019C15.2155 46.1389 15.407 45.4887 15.6816 44.8948C16.0129 44.2514 16.3995 43.5994 17.0174 43.2007C16.8939 43.0844 16.7693 42.9688 16.6452 42.8545C16.1327 43.1328 15.7184 43.5523 15.3269 43.9811ZM37.9001 45.2459C38.4952 45.7994 39.0558 46.4074 39.4557 47.1248C39.6978 47.5805 39.9616 48.0275 40.1369 48.5162C40.1905 48.6881 40.3248 48.8098 40.4585 48.9199C41.133 49.4697 42.0171 49.6251 42.8566 49.6893C44.2189 49.759 45.6064 49.5003 46.8284 48.8746C47.371 48.5762 47.913 48.2704 48.4038 47.8881C47.8167 47.1847 47.2548 46.4575 46.7007 45.7297C46.4219 45.7224 46.146 45.7823 45.8678 45.7676C44.8837 45.7358 43.8979 45.5034 43.03 45.0245C42.1869 44.5395 41.4961 43.8251 40.8981 43.06C39.9737 43.8881 38.9673 44.6196 37.9001 45.2459ZM31.9211 47.4141C32.0548 47.6789 31.9994 47.9737 31.9879 48.2569C32.0716 48.7982 32.2144 49.3566 32.5414 49.8031C32.8202 50.0563 33.1147 50.3633 33.1292 50.7682C33.1653 51.2067 32.816 51.6281 32.3866 51.671C32.0891 51.6869 31.7711 51.6294 31.5344 51.4349C31.0539 51.0624 30.7341 50.5199 30.5149 49.956C30.2312 49.2116 30.0246 48.3951 30.1824 47.5964C30.0078 47.6104 29.8331 47.6239 29.6585 47.6379C29.467 48.4594 29.4645 49.3358 29.6789 50.1535C30.1451 51.6159 31.3845 52.7395 32.7973 53.2281C33.9506 53.5492 35.1563 53.6599 36.3494 53.6018C37.3075 53.5682 38.2573 53.4018 39.2166 53.3878C38.9679 52.5132 38.9492 51.5976 38.8427 50.6997C38.6825 49.8355 38.3747 49.0006 37.9339 48.2434C37.6219 47.6135 37.1383 47.093 36.6246 46.6288C36.4222 46.4808 36.2277 46.285 35.985 46.2233C34.6727 46.7487 33.3201 47.1976 31.9211 47.4141ZM24.0895 47.0288C24.1034 47.378 24.1172 47.7279 24.0937 48.0777C24.0775 49.1407 23.7306 50.1609 23.359 51.1431C23.2753 51.4434 23.3656 51.7615 23.4512 52.0526C23.7198 52.9425 24.3449 53.6563 24.9833 54.2985C25.5259 54.7988 26.1034 55.2765 26.7725 55.5927C27.6699 56.0911 28.678 56.3321 29.6777 56.5131C29.7554 55.5951 29.8494 54.6777 29.9807 53.7664C29.4007 53.3101 28.9364 52.7248 28.5323 52.1083C28.0246 51.2869 27.7054 50.3401 27.6783 49.3664C27.6367 48.7853 27.6777 48.2019 27.7512 47.6251C26.5178 47.523 25.2826 47.3737 24.0895 47.0288Z" fill="#324950" stroke="#EFEDEB" stroke-width="0.6" mask="url(#path-1-inside-1_1_604)"/>
</svg>
